<svg xmlns="http://www.w3.org/2000/svg" viewBox="0 0 100 100"><rect width="100" height="100" rx="14" fill="#003399"/><g transform="translate(50.00 18.00)"><polygon points="0,-6 1.76,-1.85 6,-1.85 2.62,1.06 3.71,5.14 0,2.74 -3.71,5.14 -2.62,1.06 -6,-1.85 -1.76,-1.85" fill="#FFCC00"/></g><g transform="translate(66.00 22.29)"><polygon points="0,-6 1.76,-1.85 6,-1.85 2.62,1.06 3.71,5.14 0,2.74 -3.71,5.14 -2.62,1.06 -6,-1.85 -1.76,-1.85" fill="#FFCC00"/></g><g transform="translate(77.71 34.00)"><polygon points="0,-6 1.76,-1.85 6,-1.85 2.62,1.06 3.71,5.14 0,2.74 -3.71,5.14 -2.62,1.06 -6,-1.85 -1.76,-1.85" fill="#FFCC00"/></g><g transform="translate(82.00 50.00)"><polygon points="0,-6 1.76,-1.85 6,-1.85 2.62,1.06 3.71,5.14 0,2.74 -3.71,5.14 -2.62,1.06 -6,-1.85 -1.76,-1.85" fill="#FFCC00"/></g><g transform="translate(77.71 66.00)"><polygon points="0,-6 1.76,-1.85 6,-1.85 2.62,1.06 3.71,5.14 0,2.74 -3.71,5.14 -2.62,1.06 -6,-1.85 -1.76,-1.85" fill="#FFCC00"/></g><g transform="translate(66.00 77.71)"><polygon points="0,-6 1.76,-1.85 6,-1.85 2.62,1.06 3.71,5.14 0,2.74 -3.71,5.14 -2.62,1.06 -6,-1.85 -1.76,-1.85" fill="#FFCC00"/></g><g transform="translate(50.00 82.00)"><polygon points="0,-6 1.76,-1.85 6,-1.85 2.62,1.06 3.71,5.14 0,2.74 -3.71,5.14 -2.62,1.06 -6,-1.85 -1.76,-1.85" fill="#FFCC00"/></g><g transform="translate(34.00 77.71)"><polygon points="0,-6 1.76,-1.85 6,-1.85 2.62,1.06 3.71,5.14 0,2.74 -3.71,5.14 -2.62,1.06 -6,-1.85 -1.76,-1.85" fill="#FFCC00"/></g><g transform="translate(22.29 66.00)"><polygon points="0,-6 1.76,-1.85 6,-1.85 2.62,1.06 3.71,5.14 0,2.74 -3.71,5.14 -2.62,1.06 -6,-1.85 -1.76,-1.85" fill="#FFCC00"/></g><g transform="translate(18.00 50.00)"><polygon points="0,-6 1.76,-1.85 6,-1.85 2.62,1.06 3.71,5.14 0,2.74 -3.71,5.14 -2.62,1.06 -6,-1.85 -1.76,-1.85" fill="#FFCC00"/></g><g transform="translate(22.29 34.00)"><polygon points="0,-6 1.76,-1.85 6,-1.85 2.62,1.06 3.71,5.14 0,2.74 -3.71,5.14 -2.62,1.06 -6,-1.85 -1.76,-1.85" fill="#FFCC00"/></g><g transform="translate(34.00 22.29)"><polygon points="0,-6 1.76,-1.85 6,-1.85 2.62,1.06 3.71,5.14 0,2.74 -3.71,5.14 -2.62,1.06 -6,-1.85 -1.76,-1.85" fill="#FFCC00"/></g></svg>