<svg xmlns="http://www.w3.org/2000/svg" viewBox="0 0 1200 630" width="1200" height="630">
  <rect width="1200" height="630" fill="#003399"/>
  <g transform="translate(220.00 205.00)"><polygon points="0,-18 5.28,-5.55 18,-5.55 7.86,3.18 11.13,15.42 0,8.22 -11.13,15.42 -7.86,3.18 -18,-5.55 -5.28,-5.55" fill="#FFCC00"/></g><g transform="translate(275.00 219.74)"><polygon points="0,-18 5.28,-5.55 18,-5.55 7.86,3.18 11.13,15.42 0,8.22 -11.13,15.42 -7.86,3.18 -18,-5.55 -5.28,-5.55" fill="#FFCC00"/></g><g transform="translate(315.26 260.00)"><polygon points="0,-18 5.28,-5.55 18,-5.55 7.86,3.18 11.13,15.42 0,8.22 -11.13,15.42 -7.86,3.18 -18,-5.55 -5.28,-5.55" fill="#FFCC00"/></g><g transform="translate(330.00 315.00)"><polygon points="0,-18 5.28,-5.55 18,-5.55 7.86,3.18 11.13,15.42 0,8.22 -11.13,15.42 -7.86,3.18 -18,-5.55 -5.28,-5.55" fill="#FFCC00"/></g><g transform="translate(315.26 370.00)"><polygon points="0,-18 5.28,-5.55 18,-5.55 7.86,3.18 11.13,15.42 0,8.22 -11.13,15.42 -7.86,3.18 -18,-5.55 -5.28,-5.55" fill="#FFCC00"/></g><g transform="translate(275.00 410.26)"><polygon points="0,-18 5.28,-5.55 18,-5.55 7.86,3.18 11.13,15.42 0,8.22 -11.13,15.42 -7.86,3.18 -18,-5.55 -5.28,-5.55" fill="#FFCC00"/></g><g transform="translate(220.00 425.00)"><polygon points="0,-18 5.28,-5.55 18,-5.55 7.86,3.18 11.13,15.42 0,8.22 -11.13,15.42 -7.86,3.18 -18,-5.55 -5.28,-5.55" fill="#FFCC00"/></g><g transform="translate(165.00 410.26)"><polygon points="0,-18 5.28,-5.55 18,-5.55 7.86,3.18 11.13,15.42 0,8.22 -11.13,15.42 -7.86,3.18 -18,-5.55 -5.28,-5.55" fill="#FFCC00"/></g><g transform="translate(124.74 370.00)"><polygon points="0,-18 5.28,-5.55 18,-5.55 7.86,3.18 11.13,15.42 0,8.22 -11.13,15.42 -7.86,3.18 -18,-5.55 -5.28,-5.55" fill="#FFCC00"/></g><g transform="translate(110.00 315.00)"><polygon points="0,-18 5.28,-5.55 18,-5.55 7.86,3.18 11.13,15.42 0,8.22 -11.13,15.42 -7.86,3.18 -18,-5.55 -5.28,-5.55" fill="#FFCC00"/></g><g transform="translate(124.74 260.00)"><polygon points="0,-18 5.28,-5.55 18,-5.55 7.86,3.18 11.13,15.42 0,8.22 -11.13,15.42 -7.86,3.18 -18,-5.55 -5.28,-5.55" fill="#FFCC00"/></g><g transform="translate(165.00 219.74)"><polygon points="0,-18 5.28,-5.55 18,-5.55 7.86,3.18 11.13,15.42 0,8.22 -11.13,15.42 -7.86,3.18 -18,-5.55 -5.28,-5.55" fill="#FFCC00"/></g>
  <text x="430" y="280" fill="#ffffff" font-family="Georgia, 'Times New Roman', serif" font-size="72" font-weight="400">DG SEPPO</text>
  <text x="430" y="335" fill="#ffffff" font-family="Georgia, 'Times New Roman', serif" font-size="26" opacity="0.85">Directorate-General for Sustainability, Ethics, Public Policy and Outrage</text>
  <line x1="430" y1="385" x2="600" y2="385" stroke="#FFCC00" stroke-width="3"/>
  <text x="430" y="430" fill="#FFCC00" font-family="Helvetica, Arial, sans-serif" font-size="22" font-weight="700" letter-spacing="3">LEGISLATIVE INITIATIVES PORTAL</text>
  <text x="430" y="500" fill="#ffffff" font-family="Helvetica, Arial, sans-serif" font-size="18" opacity="0.7">European Commission</text>
</svg>